<svg xmlns="http://www.w3.org/2000/svg" viewBox="0 0 32 32">
  <circle cx="16" cy="16" r="15" fill="#FFD700"/> <path fill="#FFFFFF" d="M22 8H19V7C19 6.4 18.6 6 18 6H14C13.4 6 13 6.4 13 7V8H10C8.9 8 8 8.9 8 10V11C8 13.1 9.2 15 11 16.1V18C11 18.6 11.4 19 12 19H13V22H11C10.4 22 10 22.4 10 23V24H22V23C22 22.4 21.6 22 21 22H19V19H20C20.6 19 21 18.6 21 18V16.1C22.8 15 24 13.1 24 11V10C24 8.9 23.1 8 22 8ZM10 11C10 10.4 10.4 10 11 10V14C10.4 14 10 13.6 10 13V11ZM22 13C22 13.6 21.6 14 21 14V10C21.6 10 22 10.4 22 11V13Z"/> </svg>